<?xml version="1.0" encoding="utf-8" standalone="no"?>
<!DOCTYPE svg PUBLIC "-//W3C//DTD SVG 1.1//EN"
  "http://www.w3.org/Graphics/SVG/1.1/DTD/svg11.dtd">
<svg xmlns:xlink="http://www.w3.org/1999/xlink" width="754.5275pt" height="249.755937pt" viewBox="0 0 754.5275 249.755937" xmlns="http://www.w3.org/2000/svg" version="1.1">
 <metadata>
  <rdf:RDF xmlns:dc="http://purl.org/dc/elements/1.1/" xmlns:cc="http://creativecommons.org/ns#" xmlns:rdf="http://www.w3.org/1999/02/22-rdf-syntax-ns#">
   <cc:Work>
    <dc:type rdf:resource="http://purl.org/dc/dcmitype/StillImage"/>
    <dc:date>2026-09-26T17:01:36.305610</dc:date>
    <dc:format>image/svg+xml</dc:format>
    <dc:creator>
     <cc:Agent>
      <dc:title>Matplotlib v3.10.8, https://matplotlib.org/</dc:title>
     </cc:Agent>
    </dc:creator>
   </cc:Work>
  </rdf:RDF>
 </metadata>
 <defs>
  <style type="text/css">*{stroke-linejoin: round; stroke-linecap: butt}</style>
 </defs>
 <g id="figure_1">
  <g id="patch_1">
   <path d="M -0 249.755937 
L 754.5275 249.755937 
L 754.5275 0 
L -0 0 
z
" style="fill: #ffffff"/>
  </g>
  <g id="axes_1">
   <g id="patch_2">
    <path d="M 59.10625 206.891875 
L 402.256087 206.891875 
L 402.256087 26.521875 
L 59.10625 26.521875 
z
" style="fill: #ffffff"/>
   </g>
   <g id="matplotlib.axis_1">
    <g id="xtick_1">
     <g id="line2d_1">
      <defs>
       <path id="m5ba78659f0" d="M 0 0 
L 0 3.5 
" style="stroke: #000000; stroke-width: 0.8"/>
      </defs>
      <g>
       <use xlink:href="#m5ba78659f0" x="74.70397" y="206.891875" style="stroke: #000000; stroke-width: 0.8"/>
      </g>
     </g>
     <g id="text_1">
      <text style="font-size: 14px; font-family: 'SimSun'; text-anchor: middle" x="74.70397" y="223.899687" transform="rotate(-0 74.70397 223.899687)">1</text>
     </g>
    </g>
    <g id="xtick_2">
     <g id="line2d_2">
      <g>
       <use xlink:href="#m5ba78659f0" x="178.688769" y="206.891875" style="stroke: #000000; stroke-width: 0.8"/>
      </g>
     </g>
     <g id="text_2">
      <text style="font-size: 14px; font-family: 'SimSun'; text-anchor: middle" x="178.688769" y="223.899687" transform="rotate(-0 178.688769 223.899687)">2</text>
     </g>
    </g>
    <g id="xtick_3">
     <g id="line2d_3">
      <g>
       <use xlink:href="#m5ba78659f0" x="282.673568" y="206.891875" style="stroke: #000000; stroke-width: 0.8"/>
      </g>
     </g>
     <g id="text_3">
      <text style="font-size: 14px; font-family: 'SimSun'; text-anchor: middle" x="282.673568" y="223.899687" transform="rotate(-0 282.673568 223.899687)">3</text>
     </g>
    </g>
    <g id="xtick_4">
     <g id="line2d_4">
      <g>
       <use xlink:href="#m5ba78659f0" x="386.658367" y="206.891875" style="stroke: #000000; stroke-width: 0.8"/>
      </g>
     </g>
     <g id="text_4">
      <text style="font-size: 14px; font-family: 'SimSun'; text-anchor: middle" x="386.658367" y="223.899687" transform="rotate(-0 386.658367 223.899687)">4</text>
     </g>
    </g>
    <g id="text_5">
     <text style="font-size: 14px; font-family: 'SimSun'; text-anchor: middle" x="230.681168" y="240.75125" transform="rotate(-0 230.681168 240.75125)">轮次</text>
    </g>
   </g>
   <g id="matplotlib.axis_2">
    <g id="ytick_1">
     <g id="line2d_5">
      <path d="M 59.10625 184.96974 
L 402.256087 184.96974 
" clip-path="url(#pa54931f9c1)" style="fill: none; stroke: #b0b0b0; stroke-opacity: 0.17; stroke-width: 0.8; stroke-linecap: square"/>
     </g>
     <g id="line2d_6">
      <defs>
       <path id="mdb82ddb238" d="M 0 0 
L -3.5 0 
" style="stroke: #000000; stroke-width: 0.8"/>
      </defs>
      <g>
       <use xlink:href="#mdb82ddb238" x="59.10625" y="184.96974" style="stroke: #000000; stroke-width: 0.8"/>
      </g>
     </g>
     <g id="text_6">
      <text style="font-size: 14px; font-family: 'SimSun'; text-anchor: end" x="52.10625" y="189.973646" transform="rotate(-0 52.10625 189.973646)">0.01</text>
     </g>
    </g>
    <g id="ytick_2">
     <g id="line2d_7">
      <path d="M 59.10625 132.623114 
L 402.256087 132.623114 
" clip-path="url(#pa54931f9c1)" style="fill: none; stroke: #b0b0b0; stroke-opacity: 0.17; stroke-width: 0.8; stroke-linecap: square"/>
     </g>
     <g id="line2d_8">
      <g>
       <use xlink:href="#mdb82ddb238" x="59.10625" y="132.623114" style="stroke: #000000; stroke-width: 0.8"/>
      </g>
     </g>
     <g id="text_7">
      <text style="font-size: 14px; font-family: 'SimSun'; text-anchor: end" x="52.10625" y="137.62702" transform="rotate(-0 52.10625 137.62702)">0.02</text>
     </g>
    </g>
    <g id="ytick_3">
     <g id="line2d_9">
      <path d="M 59.10625 80.276489 
L 402.256087 80.276489 
" clip-path="url(#pa54931f9c1)" style="fill: none; stroke: #b0b0b0; stroke-opacity: 0.17; stroke-width: 0.8; stroke-linecap: square"/>
     </g>
     <g id="line2d_10">
      <g>
       <use xlink:href="#mdb82ddb238" x="59.10625" y="80.276489" style="stroke: #000000; stroke-width: 0.8"/>
      </g>
     </g>
     <g id="text_8">
      <text style="font-size: 14px; font-family: 'SimSun'; text-anchor: end" x="52.10625" y="85.280395" transform="rotate(-0 52.10625 85.280395)">0.03</text>
     </g>
    </g>
    <g id="ytick_4">
     <g id="line2d_11">
      <path d="M 59.10625 27.929864 
L 402.256087 27.929864 
" clip-path="url(#pa54931f9c1)" style="fill: none; stroke: #b0b0b0; stroke-opacity: 0.17; stroke-width: 0.8; stroke-linecap: square"/>
     </g>
     <g id="line2d_12">
      <g>
       <use xlink:href="#mdb82ddb238" x="59.10625" y="27.929864" style="stroke: #000000; stroke-width: 0.8"/>
      </g>
     </g>
     <g id="text_9">
      <text style="font-size: 14px; font-family: 'SimSun'; text-anchor: end" x="52.10625" y="32.93377" transform="rotate(-0 52.10625 32.93377)">0.04</text>
     </g>
    </g>
    <g id="text_10">
     <text style="font-size: 14px; font-family: 'SimSun'; text-anchor: middle" x="18.301563" y="116.706875" transform="rotate(-90 18.301563 116.706875)">组内平均最优超额率</text>
    </g>
   </g>
   <g id="line2d_13">
    <path d="M 74.70397 34.720511 
L 178.688769 113.195682 
L 282.673568 130.576089 
L 386.658367 142.689705 
" clip-path="url(#pa54931f9c1)" style="fill: none; stroke: #295a82; stroke-width: 1.7; stroke-linecap: square"/>
    <defs>
     <path id="m4ff72480c2" d="M 0 3 
C 0.795609 3 1.55874 2.683901 2.12132 2.12132 
C 2.683901 1.55874 3 0.795609 3 0 
C 3 -0.795609 2.683901 -1.55874 2.12132 -2.12132 
C 1.55874 -2.683901 0.795609 -3 0 -3 
C -0.795609 -3 -1.55874 -2.683901 -2.12132 -2.12132 
C -2.683901 -1.55874 -3 -0.795609 -3 0 
C -3 0.795609 -2.683901 1.55874 -2.12132 2.12132 
C -1.55874 2.683901 -0.795609 3 0 3 
z
" style="stroke: #295a82"/>
    </defs>
    <g clip-path="url(#pa54931f9c1)">
     <use xlink:href="#m4ff72480c2" x="74.70397" y="34.720511" style="fill: #295a82; stroke: #295a82"/>
     <use xlink:href="#m4ff72480c2" x="178.688769" y="113.195682" style="fill: #295a82; stroke: #295a82"/>
     <use xlink:href="#m4ff72480c2" x="282.673568" y="130.576089" style="fill: #295a82; stroke: #295a82"/>
     <use xlink:href="#m4ff72480c2" x="386.658367" y="142.689705" style="fill: #295a82; stroke: #295a82"/>
    </g>
   </g>
   <g id="line2d_14">
    <path d="M 74.70397 48.238606 
L 178.688769 66.84793 
L 282.673568 69.832444 
L 386.658367 74.221436 
" clip-path="url(#pa54931f9c1)" style="fill: none; stroke: #b85a32; stroke-width: 1.7; stroke-linecap: square"/>
    <defs>
     <path id="mba6984a725" d="M 0 3 
C 0.795609 3 1.55874 2.683901 2.12132 2.12132 
C 2.683901 1.55874 3 0.795609 3 0 
C 3 -0.795609 2.683901 -1.55874 2.12132 -2.12132 
C 1.55874 -2.683901 0.795609 -3 0 -3 
C -0.795609 -3 -1.55874 -2.683901 -2.12132 -2.12132 
C -2.683901 -1.55874 -3 -0.795609 -3 0 
C -3 0.795609 -2.683901 1.55874 -2.12132 2.12132 
C -1.55874 2.683901 -0.795609 3 0 3 
z
" style="stroke: #b85a32"/>
    </defs>
    <g clip-path="url(#pa54931f9c1)">
     <use xlink:href="#mba6984a725" x="74.70397" y="48.238606" style="fill: #b85a32; stroke: #b85a32"/>
     <use xlink:href="#mba6984a725" x="178.688769" y="66.84793" style="fill: #b85a32; stroke: #b85a32"/>
     <use xlink:href="#mba6984a725" x="282.673568" y="69.832444" style="fill: #b85a32; stroke: #b85a32"/>
     <use xlink:href="#mba6984a725" x="386.658367" y="74.221436" style="fill: #b85a32; stroke: #b85a32"/>
    </g>
   </g>
   <g id="line2d_15">
    <path d="M 74.70397 154.101084 
L 178.688769 183.068428 
L 282.673568 194.479807 
L 386.658367 198.693239 
" clip-path="url(#pa54931f9c1)" style="fill: none; stroke: #486d3d; stroke-width: 1.7; stroke-linecap: square"/>
    <defs>
     <path id="mffeba60f14" d="M 0 3 
C 0.795609 3 1.55874 2.683901 2.12132 2.12132 
C 2.683901 1.55874 3 0.795609 3 0 
C 3 -0.795609 2.683901 -1.55874 2.12132 -2.12132 
C 1.55874 -2.683901 0.795609 -3 0 -3 
C -0.795609 -3 -1.55874 -2.683901 -2.12132 -2.12132 
C -2.683901 -1.55874 -3 -0.795609 -3 0 
C -3 0.795609 -2.683901 1.55874 -2.12132 2.12132 
C -1.55874 2.683901 -0.795609 3 0 3 
z
" style="stroke: #486d3d"/>
    </defs>
    <g clip-path="url(#pa54931f9c1)">
     <use xlink:href="#mffeba60f14" x="74.70397" y="154.101084" style="fill: #486d3d; stroke: #486d3d"/>
     <use xlink:href="#mffeba60f14" x="178.688769" y="183.068428" style="fill: #486d3d; stroke: #486d3d"/>
     <use xlink:href="#mffeba60f14" x="282.673568" y="194.479807" style="fill: #486d3d; stroke: #486d3d"/>
     <use xlink:href="#mffeba60f14" x="386.658367" y="198.693239" style="fill: #486d3d; stroke: #486d3d"/>
    </g>
   </g>
   <g id="patch_3">
    <path d="M 59.10625 206.891875 
L 59.10625 26.521875 
" style="fill: none; stroke: #000000; stroke-width: 0.8; stroke-linejoin: miter; stroke-linecap: square"/>
   </g>
   <g id="patch_4">
    <path d="M 59.10625 206.891875 
L 402.256087 206.891875 
" style="fill: none; stroke: #000000; stroke-width: 0.8; stroke-linejoin: miter; stroke-linecap: square"/>
   </g>
   <g id="text_11">
    <text style="font-size: 16.8px; font-family: 'SimSun'; text-anchor: middle" x="230.681168" y="20.521875" transform="rotate(-0 230.681168 20.521875)">首轮已出现组间差异</text>
   </g>
   <g id="legend_1">
    <g id="line2d_16">
     <path d="M 71.70625 97.095937 
L 85.70625 97.095937 
L 99.70625 97.095937 
" style="fill: none; stroke: #295a82; stroke-width: 1.7; stroke-linecap: square"/>
     <g>
      <use xlink:href="#m4ff72480c2" x="85.70625" y="97.095937" style="fill: #295a82; stroke: #295a82"/>
     </g>
    </g>
    <g id="text_12">
     <text style="font-size: 14px; font-family: 'SimSun'; text-anchor: start" x="110.90625" y="101.995937" transform="rotate(-0 110.90625 101.995937)">A</text>
    </g>
    <g id="line2d_17">
     <path d="M 71.70625 115.908437 
L 85.70625 115.908437 
L 99.70625 115.908437 
" style="fill: none; stroke: #b85a32; stroke-width: 1.7; stroke-linecap: square"/>
     <g>
      <use xlink:href="#mba6984a725" x="85.70625" y="115.908437" style="fill: #b85a32; stroke: #b85a32"/>
     </g>
    </g>
    <g id="text_13">
     <text style="font-size: 14px; font-family: 'SimSun'; text-anchor: start" x="110.90625" y="120.808437" transform="rotate(-0 110.90625 120.808437)">B</text>
    </g>
    <g id="line2d_18">
     <path d="M 71.70625 134.720937 
L 85.70625 134.720937 
L 99.70625 134.720937 
" style="fill: none; stroke: #486d3d; stroke-width: 1.7; stroke-linecap: square"/>
     <g>
      <use xlink:href="#mffeba60f14" x="85.70625" y="134.720937" style="fill: #486d3d; stroke: #486d3d"/>
     </g>
    </g>
    <g id="text_14">
     <text style="font-size: 14px; font-family: 'SimSun'; text-anchor: start" x="110.90625" y="139.620937" transform="rotate(-0 110.90625 139.620937)">C</text>
    </g>
   </g>
  </g>
  <g id="axes_2">
   <g id="patch_5">
    <path d="M 483.366087 206.891875 
L 747.3275 206.891875 
L 747.3275 26.521875 
L 483.366087 26.521875 
z
" style="fill: #ffffff"/>
   </g>
   <g id="patch_6">
    <path d="M 495.364333 128.470136 
L 543.357317 128.470136 
L 543.357317 62.191576 
L 495.364333 62.191576 
z
" clip-path="url(#p938230260f)" style="fill: #486d3d"/>
   </g>
   <g id="patch_7">
    <path d="M 591.350301 128.470136 
L 639.343286 128.470136 
L 639.343286 189.225483 
L 591.350301 189.225483 
z
" clip-path="url(#p938230260f)" style="fill: #b85a32"/>
   </g>
   <g id="patch_8">
    <path d="M 687.33627 128.470136 
L 735.329254 128.470136 
L 735.329254 50.356119 
L 687.33627 50.356119 
z
" clip-path="url(#p938230260f)" style="fill: #486d3d"/>
   </g>
   <g id="matplotlib.axis_3">
    <g id="xtick_5">
     <g id="line2d_19">
      <g>
       <use xlink:href="#m5ba78659f0" x="519.360825" y="206.891875" style="stroke: #000000; stroke-width: 0.8"/>
      </g>
     </g>
     <g id="text_15">
      <text style="font-size: 14px; font-family: 'SimSun'; text-anchor: middle" x="519.360825" y="223.899687" transform="rotate(-0 519.360825 223.899687)">S1</text>
     </g>
    </g>
    <g id="xtick_6">
     <g id="line2d_20">
      <g>
       <use xlink:href="#m5ba78659f0" x="615.346793" y="206.891875" style="stroke: #000000; stroke-width: 0.8"/>
      </g>
     </g>
     <g id="text_16">
      <text style="font-size: 14px; font-family: 'SimSun'; text-anchor: middle" x="615.346793" y="223.899687" transform="rotate(-0 615.346793 223.899687)">S2</text>
     </g>
    </g>
    <g id="xtick_7">
     <g id="line2d_21">
      <g>
       <use xlink:href="#m5ba78659f0" x="711.332762" y="206.891875" style="stroke: #000000; stroke-width: 0.8"/>
      </g>
     </g>
     <g id="text_17">
      <text style="font-size: 14px; font-family: 'SimSun'; text-anchor: middle" x="711.332762" y="223.899687" transform="rotate(-0 711.332762 223.899687)">S3</text>
     </g>
    </g>
   </g>
   <g id="matplotlib.axis_4">
    <g id="ytick_5">
     <g id="line2d_22">
      <path d="M 483.366087 206.891875 
L 747.3275 206.891875 
" clip-path="url(#p938230260f)" style="fill: none; stroke: #b0b0b0; stroke-opacity: 0.17; stroke-width: 0.8; stroke-linecap: square"/>
     </g>
     <g id="line2d_23">
      <g>
       <use xlink:href="#mdb82ddb238" x="483.366087" y="206.891875" style="stroke: #000000; stroke-width: 0.8"/>
      </g>
     </g>
     <g id="text_18">
      <text style="font-size: 14px; font-family: 'SimSun'; text-anchor: end" x="476.366087" y="211.895781" transform="rotate(-0 476.366087 211.895781)">-0.010</text>
     </g>
    </g>
    <g id="ytick_6">
     <g id="line2d_24">
      <path d="M 483.366087 167.681005 
L 747.3275 167.681005 
" clip-path="url(#p938230260f)" style="fill: none; stroke: #b0b0b0; stroke-opacity: 0.17; stroke-width: 0.8; stroke-linecap: square"/>
     </g>
     <g id="line2d_25">
      <g>
       <use xlink:href="#mdb82ddb238" x="483.366087" y="167.681005" style="stroke: #000000; stroke-width: 0.8"/>
      </g>
     </g>
     <g id="text_19">
      <text style="font-size: 14px; font-family: 'SimSun'; text-anchor: end" x="476.366087" y="172.684912" transform="rotate(-0 476.366087 172.684912)">-0.005</text>
     </g>
    </g>
    <g id="ytick_7">
     <g id="line2d_26">
      <path d="M 483.366087 128.470136 
L 747.3275 128.470136 
" clip-path="url(#p938230260f)" style="fill: none; stroke: #b0b0b0; stroke-opacity: 0.17; stroke-width: 0.8; stroke-linecap: square"/>
     </g>
     <g id="line2d_27">
      <g>
       <use xlink:href="#mdb82ddb238" x="483.366087" y="128.470136" style="stroke: #000000; stroke-width: 0.8"/>
      </g>
     </g>
     <g id="text_20">
      <text style="font-size: 14px; font-family: 'SimSun'; text-anchor: end" x="476.366087" y="133.474042" transform="rotate(-0 476.366087 133.474042)">0.000</text>
     </g>
    </g>
    <g id="ytick_8">
     <g id="line2d_28">
      <path d="M 483.366087 89.259266 
L 747.3275 89.259266 
" clip-path="url(#p938230260f)" style="fill: none; stroke: #b0b0b0; stroke-opacity: 0.17; stroke-width: 0.8; stroke-linecap: square"/>
     </g>
     <g id="line2d_29">
      <g>
       <use xlink:href="#mdb82ddb238" x="483.366087" y="89.259266" style="stroke: #000000; stroke-width: 0.8"/>
      </g>
     </g>
     <g id="text_21">
      <text style="font-size: 14px; font-family: 'SimSun'; text-anchor: end" x="476.366087" y="94.263173" transform="rotate(-0 476.366087 94.263173)">0.005</text>
     </g>
    </g>
    <g id="ytick_9">
     <g id="line2d_30">
      <path d="M 483.366087 50.048397 
L 747.3275 50.048397 
" clip-path="url(#p938230260f)" style="fill: none; stroke: #b0b0b0; stroke-opacity: 0.17; stroke-width: 0.8; stroke-linecap: square"/>
     </g>
     <g id="line2d_31">
      <g>
       <use xlink:href="#mdb82ddb238" x="483.366087" y="50.048397" style="stroke: #000000; stroke-width: 0.8"/>
      </g>
     </g>
     <g id="text_22">
      <text style="font-size: 14px; font-family: 'SimSun'; text-anchor: end" x="476.366087" y="55.052303" transform="rotate(-0 476.366087 55.052303)">0.010</text>
     </g>
    </g>
    <g id="text_23">
     <text style="font-size: 14px; font-family: 'SimSun'; text-anchor: middle" x="428.561399" y="116.706875" transform="rotate(-90 428.561399 116.706875)">首轮后改善差（C-B）</text>
    </g>
   </g>
   <g id="line2d_32">
    <path d="M 483.366087 128.470136 
L 747.3275 128.470136 
" clip-path="url(#p938230260f)" style="fill: none; stroke: #666666; stroke-width: 0.8; stroke-linecap: square"/>
   </g>
   <g id="patch_9">
    <path d="M 483.366087 206.891875 
L 483.366087 26.521875 
" style="fill: none; stroke: #000000; stroke-width: 0.8; stroke-linejoin: miter; stroke-linecap: square"/>
   </g>
   <g id="patch_10">
    <path d="M 483.366087 206.891875 
L 747.3275 206.891875 
" style="fill: none; stroke: #000000; stroke-width: 0.8; stroke-linejoin: miter; stroke-linecap: square"/>
   </g>
   <g id="text_24">
    <text style="font-size: 12px; font-family: 'SimSun'; text-anchor: middle" x="519.360825" y="57.115723" transform="rotate(-0 519.360825 57.115723)">+0.00845</text>
   </g>
   <g id="text_25">
    <text style="font-size: 12px; font-family: 'SimSun'; text-anchor: middle" x="615.346793" y="201.332586" transform="rotate(-0 615.346793 201.332586)">-0.00775</text>
   </g>
   <g id="text_26">
    <text style="font-size: 12px; font-family: 'SimSun'; text-anchor: middle" x="711.332762" y="45.280265" transform="rotate(-0 711.332762 45.280265)">+0.00996</text>
   </g>
   <g id="text_27">
    <text style="font-size: 16.8px; font-family: 'SimSun'; text-anchor: middle" x="615.346793" y="20.521875" transform="rotate(-0 615.346793 20.521875)">首轮后增量的方向并不一致</text>
   </g>
  </g>
 </g>
 <defs>
  <clipPath id="pa54931f9c1">
   <rect x="59.10625" y="26.521875" width="343.149837" height="180.37"/>
  </clipPath>
  <clipPath id="p938230260f">
   <rect x="483.366087" y="26.521875" width="263.961413" height="180.37"/>
  </clipPath>
 </defs>
</svg>
